<?xml version="1.0" encoding="UTF-8" standalone="no"?>
<svg
   xmlns:dc="http://purl.org/dc/elements/1.1/"
   xmlns:cc="http://creativecommons.org/ns#"
   xmlns:rdf="http://www.w3.org/1999/02/22-rdf-syntax-ns#"
   xmlns:svg="http://www.w3.org/2000/svg"
   xmlns="http://www.w3.org/2000/svg"
   viewBox="0 0 522.29333 179.54668"
   height="179.54668"
   width="522.29333"
   xml:space="preserve"
   id="svg2"
   version="1.1"><metadata
     id="metadata8"><rdf:RDF><cc:Work
         rdf:about=""><dc:format>image/svg+xml</dc:format><dc:type
           rdf:resource="http://purl.org/dc/dcmitype/StillImage" /></cc:Work></rdf:RDF></metadata><defs
     id="defs6"><clipPath
       id="clipPath20"
       clipPathUnits="userSpaceOnUse"><path
         id="path18"
         d="m 680.273,1002.82 c 16.192,77.04 23.028,156.16 19.954,235.57 l -187.446,108.24 c 30.649,-161.49 9.145,-327.37 -58.179,-474.071 z" /></clipPath><linearGradient
       id="linearGradient26"
       spreadMethod="pad"
       gradientTransform="matrix(-112.876,-368.726,368.726,-112.876,615.762,1237.58)"
       gradientUnits="userSpaceOnUse"
       y2="0"
       x2="1"
       y1="0"
       x1="0"><stop
         id="stop22"
         offset="0"
         style="stop-opacity:1;stop-color:#8b1a84" /><stop
         id="stop24"
         offset="1"
         style="stop-opacity:1;stop-color:#e50484" /></linearGradient><clipPath
       id="clipPath36"
       clipPathUnits="userSpaceOnUse"><path
         id="path34"
         d="M 214.023,1002.82 C 139.211,978.379 67.2344,944.707 0.046875,902.352 L 0,685.867 c 124.551,107.297 278.984,171.594 439.617,186.692 z" /></clipPath><linearGradient
       id="linearGradient42"
       spreadMethod="pad"
       gradientTransform="matrix(-256.763,-183.39,183.39,-256.763,308.105,950.497)"
       gradientUnits="userSpaceOnUse"
       y2="0"
       x2="1"
       y1="0"
       x1="0"><stop
         id="stop38"
         offset="0"
         style="stop-opacity:1;stop-color:#8b1a84" /><stop
         id="stop40"
         offset="1"
         style="stop-opacity:1;stop-color:#e50484" /></linearGradient><clipPath
       id="clipPath52"
       clipPathUnits="userSpaceOnUse"><path
         id="path50"
         d="M 447.141,599.063 C 388.516,546.473 323.43,500.977 253.152,463.934 L 65.6367,572.188 C 220.789,626.395 353.762,727.977 447.141,859.539 Z" /></clipPath><linearGradient
       id="linearGradient58"
       spreadMethod="pad"
       gradientTransform="matrix(-221.361,-150.672,150.672,-221.361,393.975,687.909)"
       gradientUnits="userSpaceOnUse"
       y2="0"
       x2="1"
       y1="0"
       x1="0"><stop
         id="stop54"
         offset="0"
         style="stop-opacity:1;stop-color:#8b1a84" /><stop
         id="stop56"
         offset="1"
         style="stop-opacity:1;stop-color:#e50484" /></linearGradient><clipPath
       id="clipPath68"
       clipPathUnits="userSpaceOnUse"><path
         id="path66"
         d="m 447.141,599.063 c 58.601,-52.59 123.718,-98.086 194.05,-135.129 l 187.43,108.254 C 673.477,626.395 540.547,727.977 447.141,859.539 Z" /></clipPath><linearGradient
       id="linearGradient74"
       spreadMethod="pad"
       gradientTransform="matrix(-166.097,72.0401,-72.0401,-166.097,604.434,635.605)"
       gradientUnits="userSpaceOnUse"
       y2="0"
       x2="1"
       y1="0"
       x1="0"><stop
         id="stop70"
         offset="0"
         style="stop-opacity:1;stop-color:#8b1a84" /><stop
         id="stop72"
         offset="1"
         style="stop-opacity:1;stop-color:#e50484" /></linearGradient><clipPath
       id="clipPath84"
       clipPathUnits="userSpaceOnUse"><path
         id="path82"
         d="M 680.273,1002.82 C 755.09,978.379 827.02,944.707 894.258,902.352 l 0.09,-216.485 C 769.707,793.164 615.359,857.461 454.602,872.559 Z" /></clipPath><linearGradient
       id="linearGradient90"
       spreadMethod="pad"
       gradientTransform="matrix(316.391,-145.013,145.013,316.391,619.863,917.094)"
       gradientUnits="userSpaceOnUse"
       y2="0"
       x2="1"
       y1="0"
       x1="0"><stop
         id="stop86"
         offset="0"
         style="stop-opacity:1;stop-color:#8b1a84" /><stop
         id="stop88"
         offset="1"
         style="stop-opacity:1;stop-color:#e50484" /></linearGradient><clipPath
       id="clipPath100"
       clipPathUnits="userSpaceOnUse"><path
         id="path98"
         d="m 214.023,1002.82 c -16.218,77.04 -23.078,156.16 -19.992,235.57 l 187.434,108.24 c -30.559,-161.49 -9.082,-327.37 58.152,-474.071 z" /></clipPath><linearGradient
       id="linearGradient106"
       spreadMethod="pad"
       gradientTransform="matrix(246.309,0,0,-246.309,193.311,1109.59)"
       gradientUnits="userSpaceOnUse"
       y2="0"
       x2="1"
       y1="0"
       x1="0"><stop
         id="stop102"
         offset="0"
         style="stop-opacity:1;stop-color:#8b1a84" /><stop
         id="stop104"
         offset="1"
         style="stop-opacity:1;stop-color:#e50484" /></linearGradient></defs><g
     transform="matrix(1.3333333,0,0,-1.3333333,0,179.54667)"
     id="g10"><g
       transform="scale(0.1)"
       id="g12"><g
         id="g14"><g
           clip-path="url(#clipPath20)"
           id="g16"><path
             id="path28"
             style="fill:url(#linearGradient26);fill-opacity:1;fill-rule:nonzero;stroke:none"
             d="m 680.273,1002.82 c 16.192,77.04 23.028,156.16 19.954,235.57 l -187.446,108.24 c 30.649,-161.49 9.145,-327.37 -58.179,-474.071 l 225.671,130.261" /></g></g><g
         id="g30"><g
           clip-path="url(#clipPath36)"
           id="g32"><path
             id="path44"
             style="fill:url(#linearGradient42);fill-opacity:1;fill-rule:nonzero;stroke:none"
             d="M 214.023,1002.82 C 139.211,978.379 67.2344,944.707 0.046875,902.352 L 0,685.867 C 124.551,793.164 278.984,857.461 439.617,872.559 L 214.023,1002.82" /></g></g><g
         id="g46"><g
           clip-path="url(#clipPath52)"
           id="g48"><path
             id="path60"
             style="fill:url(#linearGradient58);fill-opacity:1;fill-rule:nonzero;stroke:none"
             d="M 447.141,599.063 C 388.516,546.473 323.43,500.977 253.152,463.934 L 65.6367,572.188 C 220.789,626.395 353.762,727.977 447.141,859.539 V 599.063" /></g></g><g
         id="g62"><g
           clip-path="url(#clipPath68)"
           id="g64"><path
             id="path76"
             style="fill:url(#linearGradient74);fill-opacity:1;fill-rule:nonzero;stroke:none"
             d="m 447.141,599.063 c 58.601,-52.59 123.718,-98.086 194.05,-135.129 l 187.43,108.254 C 673.477,626.395 540.547,727.977 447.141,859.539 V 599.063" /></g></g><g
         id="g78"><g
           clip-path="url(#clipPath84)"
           id="g80"><path
             id="path92"
             style="fill:url(#linearGradient90);fill-opacity:1;fill-rule:nonzero;stroke:none"
             d="M 680.273,1002.82 C 755.09,978.379 827.02,944.707 894.258,902.352 l 0.09,-216.485 C 769.707,793.164 615.359,857.461 454.602,872.559 l 225.671,130.261" /></g></g><g
         id="g94"><g
           clip-path="url(#clipPath100)"
           id="g96"><path
             id="path108"
             style="fill:url(#linearGradient106);fill-opacity:1;fill-rule:nonzero;stroke:none"
             d="m 214.023,1002.82 c -16.218,77.04 -23.078,156.16 -19.992,235.57 l 187.434,108.24 c -30.559,-161.49 -9.082,-327.37 58.152,-474.071 L 214.023,1002.82" /></g></g><path
         id="path110"
         style="fill:#231f20;fill-opacity:1;fill-rule:nonzero;stroke:none"
         d="m 1121.32,846.188 h 204.11 l -84.16,276.342 h -35.79 z m 67.6,298.872 h 70.24 L 1400.31,682.5 h -23.85 l -44.41,141.156 H 1114.7 l -44.41,-142.48 h -23.85 l 142.48,463.884" /><path
         id="path112"
         style="fill:#231f20;fill-opacity:1;fill-rule:nonzero;stroke:none"
         d="m 1490.44,1012.52 h 23.19 v -51.692 c 0,0 58.31,44.402 131.21,58.322 v -22.537 c -64.94,-12.59 -131.21,-57.648 -131.21,-57.648 V 681.176 h -23.19 v 331.344" /><path
         id="path114"
         style="fill:#231f20;fill-opacity:1;fill-rule:nonzero;stroke:none"
         d="m 1788.64,846.852 c -51.69,-5.305 -69.58,-33.801 -69.58,-74.891 0,-48.371 23.2,-75.543 60.31,-75.543 65.6,0 132.53,26.508 132.53,26.508 V 858.777 Z M 1935.1,724.91 c 1.99,-19.215 27.17,-25.844 49.7,-27.832 l -1.32,-21.207 c -28.5,0 -53.69,5.969 -68.27,26.512 0,0 -61.62,-27.168 -136.51,-27.168 -51.69,0 -84.16,32.469 -84.16,96.746 0,56.332 25.85,88.805 91.46,95.43 l 125.9,13.254 v 34.46 c 0,57.653 -25.18,80.844 -73.55,80.844 -48.38,0 -125.25,-11.261 -125.25,-11.261 l -1.99,21.872 c 0,0 74.22,11.92 127.24,11.92 66.93,0 96.75,-35.117 96.75,-103.375 V 724.91" /><path
         id="path116"
         style="fill:#231f20;fill-opacity:1;fill-rule:nonzero;stroke:none"
         d="m 2293.62,852.813 c 0,99.402 -14.58,144.464 -88.13,144.464 -58.99,0 -113.99,-26.507 -113.99,-26.507 V 700.395 c 0,0 51.69,-3.977 74.89,-3.977 110.67,0 127.23,51.027 127.23,156.395 z m 24.52,1.328 c 0,-123.926 -27.83,-178.926 -151.09,-178.926 -45.07,0 -98.74,5.961 -98.74,5.961 v 483.764 h 23.19 V 991.977 c 0,0 55,26.503 113.99,26.503 90.13,0 112.65,-50.363 112.65,-164.339" /><path
         id="path118"
         style="fill:#231f20;fill-opacity:1;fill-rule:nonzero;stroke:none"
         d="m 2417.54,1012.52 h 23.19 V 681.176 h -23.19 z m 0,132.54 h 23.19 v -36.45 h -23.19 v 36.45" /><path
         id="path120"
         style="fill:#231f20;fill-opacity:1;fill-rule:nonzero;stroke:none"
         d="m 2630.93,846.852 c -51.69,-5.305 -69.58,-33.801 -69.58,-74.891 0,-48.371 23.19,-75.543 60.3,-75.543 65.61,0 132.54,26.508 132.54,26.508 V 858.777 Z M 2777.38,724.91 c 2,-19.215 27.17,-25.844 49.71,-27.832 l -1.33,-21.207 c -28.49,0 -53.68,5.969 -68.26,26.512 0,0 -61.62,-27.168 -136.51,-27.168 -51.69,0 -84.16,32.469 -84.16,96.746 0,56.332 25.85,88.805 91.45,95.43 l 125.91,13.254 v 34.46 c 0,57.653 -25.19,80.844 -73.56,80.844 -48.37,0 -125.25,-11.261 -125.25,-11.261 l -1.98,21.872 c 0,0 74.22,11.92 127.23,11.92 66.94,0 96.75,-35.117 96.75,-103.375 V 724.91" /><path
         id="path122"
         style="fill:#231f20;fill-opacity:1;fill-rule:nonzero;stroke:none"
         d="m 1135.23,616.305 68.93,-363.157 h 9.93 l 68.93,363.157 h 104.04 l 68.92,-363.157 h 9.94 l 68.91,363.157 h 96.1 L 1528.88,159.051 h -135.85 l -58.32,322.726 -57.66,-322.726 H 1141.2 l -102.05,457.254 h 96.08" /><path
         id="path124"
         style="fill:#231f20;fill-opacity:1;fill-rule:nonzero;stroke:none"
         d="m 1873.49,354.539 c 0,47.051 -15.25,64.281 -57,64.281 -42.41,0 -56.99,-20.543 -57.65,-64.281 z m 75.54,-115.969 1.33,-68.922 c 0,0 -76.21,-18.558 -137.84,-18.558 -100.07,0 -142.48,49.711 -142.48,168.988 0,117.961 49.71,177.602 146.45,177.602 97.42,0 144.47,-49.039 144.47,-149.102 l -6.62,-62.297 H 1759.5 c 0.67,-37.769 19.22,-53.672 66.94,-53.672 54.33,0 122.59,5.961 122.59,5.961" /><path
         id="path126"
         style="fill:#231f20;fill-opacity:1;fill-rule:nonzero;stroke:none"
         d="m 2214.78,243.211 v 168.32 c 0,0 -36.45,5.961 -64.95,5.961 -33.13,0 -53.68,-23.855 -53.68,-89.461 0,-66.929 12.59,-92.769 54.34,-94.101 25.85,0.66 64.29,9.281 64.29,9.281 z m 88.79,-84.16 h -88.79 v 13.25 c 0,0 -45.74,-20.539 -79.53,-20.539 -100.06,0 -129.22,60.297 -129.22,176.269 0,119.946 47.05,169.649 137.17,169.649 24.52,0 71.58,-8.614 71.58,-8.614 V 622.93 h 88.79 V 159.051" /><path
         id="path128"
         style="fill:#231f20;fill-opacity:1;fill-rule:nonzero;stroke:none"
         d="m 2579.92,243.211 v 168.32 c 0,0 -36.44,5.961 -64.94,5.961 -33.13,0 -53.68,-23.855 -53.68,-89.461 0,-66.929 12.59,-92.769 54.33,-94.101 25.85,0.66 64.29,9.281 64.29,9.281 z m 88.8,-84.16 h -88.8 v 13.25 c 0,0 -45.73,-20.539 -79.52,-20.539 -100.07,0 -129.23,60.297 -129.23,176.269 0,119.946 47.05,169.649 137.18,169.649 24.52,0 71.57,-8.614 71.57,-8.614 V 622.93 h 88.8 V 159.051" /><path
         id="path130"
         style="fill:#231f20;fill-opacity:1;fill-rule:nonzero;stroke:none"
         d="m 2757.53,489.73 h 88.8 V 159.051 h -88.8 z m 0,133.864 h 88.8 v -90.793 h -88.8 v 90.793" /><path
         id="path132"
         style="fill:#231f20;fill-opacity:1;fill-rule:nonzero;stroke:none"
         d="M 2935.13,159.051 V 489.73 h 88.8 v -14.578 c 0,0 51.02,22.528 82.16,22.528 92.79,0 116.64,-58.317 116.64,-165.668 V 159.051 h -88.8 v 172.961 c 0,50.359 -6.63,82.832 -46.39,82.832 -21.87,0 -63.61,-11.266 -63.61,-11.266 V 159.051 h -88.8" /><path
         id="path134"
         style="fill:#231f20;fill-opacity:1;fill-rule:nonzero;stroke:none"
         d="m 3479.85,379.723 c 0,29.82 -15.9,41.75 -51.69,41.75 -35.79,0 -49.7,-12.59 -49.7,-41.75 0,-29.157 12.59,-42.414 49.04,-42.414 35.78,0 52.35,10.605 52.35,42.414 z m -88.8,-233.922 c -11.26,-11.27 -17.89,-21.211 -17.89,-37.781 0,-19.2192 23.2,-28.4887 72.89,-28.4887 43.08,0 66.94,9.2695 66.94,33.1287 0,25.18 -13.25,27.828 -62.3,28.5 -18.55,0 -59.64,4.641 -59.64,4.641 z M 3285.68,98.7383 c 0,30.4917 13.92,53.6837 47.05,79.5317 -14.58,9.941 -23.85,29.152 -23.85,49.699 0,16.57 25.85,53.011 25.85,53.011 -23.2,16.571 -45.07,41.09 -45.07,98.743 0,85.484 61.63,117.297 139.17,117.297 29.16,0 66.92,-8.618 66.92,-8.618 l 102.06,1.989 V 419.48 h -41.75 c 5.31,-9.277 11.26,-20.539 11.26,-39.757 0,-92.774 -49.03,-116.633 -139.82,-116.633 -7.29,0 -21.21,1.32 -27.17,2.648 0,0 -6.63,-17.226 -6.63,-25.84 0,-17.23 7.95,-21.867 64.29,-21.867 112.65,0 144.46,-25.851 144.46,-100.07 C 3602.45,33.1289 3530.88,0 3445.39,0 3348.64,0 3285.68,17.8906 3285.68,98.7383" /><path
         id="path136"
         style="fill:#231f20;fill-opacity:1;fill-rule:nonzero;stroke:none"
         d="m 3905.97,406.895 c 0,0 -82.17,10.597 -120.61,10.597 -38.44,0 -46.39,-7.949 -46.39,-25.844 0,-15.238 12.59,-19.218 62.29,-27.168 88.14,-13.914 115.98,-39.101 115.98,-106.031 0,-77.527 -51.03,-107.359 -133.87,-107.359 -49.03,0 -127.24,15.91 -127.24,15.91 l 2.66,74.879 c 0,0 82.17,-10.598 115.97,-10.598 42.41,0 53.68,7.949 53.68,25.18 0,14.578 -7.3,19.879 -53.68,27.84 -86.16,14.578 -124.59,34.449 -124.59,105.359 0,76.871 58.98,108.02 128.56,108.02 47.72,0 128.56,-16.567 128.56,-16.567 l -1.32,-74.218" /></g></g></svg>